<mxfile host="Electron" modified="2023-04-23T15:09:20.463Z" agent="Mozilla/5.0 (X11; Linux x86_64) AppleWebKit/537.36 (KHTML, like Gecko) draw.io/21.1.2 Chrome/106.0.5249.199 Electron/21.4.3 Safari/537.36" etag="vIOwpFduEmy8Zk4Nrjew" version="21.1.2" type="device">
  <diagram name="Page-1" id="0xaKvcrYNr95pNH14Osg">
    <mxGraphModel dx="2284" dy="849" grid="1" gridSize="10" guides="1" tooltips="1" connect="1" arrows="1" fold="1" page="1" pageScale="1" pageWidth="850" pageHeight="1100" math="0" shadow="0">
      <root>
        <mxCell id="0" />
        <mxCell id="1" parent="0" />
        <mxCell id="nkXtuYNd5NuE9keqcuQ0-2" value="" style="edgeStyle=orthogonalEdgeStyle;rounded=0;orthogonalLoop=1;jettySize=auto;html=1;" parent="1" source="Im9fZA_TLzj1qI4OMQGq-3" target="nkXtuYNd5NuE9keqcuQ0-1" edge="1">
          <mxGeometry relative="1" as="geometry" />
        </mxCell>
        <mxCell id="Im9fZA_TLzj1qI4OMQGq-3" value="Clone extraction" style="ellipse;whiteSpace=wrap;html=1;" parent="1" vertex="1">
          <mxGeometry x="-270" y="340" width="140" height="80" as="geometry" />
        </mxCell>
        <mxCell id="Im9fZA_TLzj1qI4OMQGq-5" value="Code clones" style="ellipse;whiteSpace=wrap;html=1;" parent="1" vertex="1">
          <mxGeometry x="70" y="340" width="140" height="80" as="geometry" />
        </mxCell>
        <mxCell id="nkXtuYNd5NuE9keqcuQ0-3" style="edgeStyle=orthogonalEdgeStyle;rounded=0;orthogonalLoop=1;jettySize=auto;html=1;exitX=1;exitY=0.5;exitDx=0;exitDy=0;" parent="1" source="nkXtuYNd5NuE9keqcuQ0-1" target="Im9fZA_TLzj1qI4OMQGq-5" edge="1">
          <mxGeometry relative="1" as="geometry" />
        </mxCell>
        <mxCell id="nkXtuYNd5NuE9keqcuQ0-1" value="Source-mapping" style="ellipse;whiteSpace=wrap;html=1;fillColor=#dae8fc;strokeColor=#6c8ebf;" parent="1" vertex="1">
          <mxGeometry x="-100" y="340" width="140" height="80" as="geometry" />
        </mxCell>
      </root>
    </mxGraphModel>
  </diagram>
</mxfile>
